<svg width="91" height="91" viewBox="0 0 91 91" fill="none" xmlns="http://www.w3.org/2000/svg">
<path d="M45.2548 0L90.5097 45.2548L45.2548 90.5097L0 45.2548L45.2548 0Z" fill="#D4AF37"/>
<path d="M36.4065 55.5349C34.8758 55.5349 33.4665 55.2922 32.1785 54.8069C30.9092 54.3029 29.7985 53.6029 28.8465 52.7069C27.8945 51.7922 27.1572 50.7189 26.6345 49.4869C26.1118 48.2549 25.8505 46.9109 25.8505 45.4549C25.8505 43.9989 26.1118 42.6549 26.6345 41.4229C27.1572 40.1909 27.8945 39.1269 28.8465 38.2309C29.8172 37.3162 30.9465 36.6162 32.2345 36.1309C33.5225 35.6269 34.9318 35.3749 36.4625 35.3749C38.1238 35.3749 39.6172 35.6455 40.9425 36.1869C42.2865 36.7282 43.4158 37.5215 44.3305 38.5669L42.0345 40.8069C41.2692 40.0415 40.4385 39.4815 39.5425 39.1269C38.6652 38.7535 37.6945 38.5669 36.6305 38.5669C35.6038 38.5669 34.6518 38.7349 33.7745 39.0709C32.8972 39.4069 32.1412 39.8829 31.5065 40.4989C30.8718 41.1149 30.3772 41.8429 30.0225 42.6829C29.6865 43.5229 29.5185 44.4469 29.5185 45.4549C29.5185 46.4442 29.6865 47.3589 30.0225 48.1989C30.3772 49.0389 30.8718 49.7762 31.5065 50.4109C32.1412 51.0269 32.8878 51.5029 33.7465 51.8389C34.6052 52.1749 35.5572 52.3429 36.6025 52.3429C37.5732 52.3429 38.5065 52.1935 39.4025 51.8949C40.3172 51.5775 41.1852 51.0549 42.0065 50.3269L44.0785 53.0429C43.0518 53.8642 41.8572 54.4896 40.4945 54.9189C39.1505 55.3296 37.7878 55.5349 36.4065 55.5349ZM44.0785 53.0429L40.6345 52.5669V45.2309H44.0785V53.0429Z" fill="#0B0F14"/>
<path d="M55.6554 55.2549V38.7349H49.1594V35.6549H65.7914V38.7349H59.2954V55.2549H55.6554Z" fill="#0B0F14"/>
</svg>
