<svg width="105" height="105" viewBox="0 0 105 105" fill="none" xmlns="http://www.w3.org/2000/svg">
<rect x="0.5" y="0.5" width="104" height="104" rx="17.5" fill="#EBB811"/>
<rect x="0.5" y="0.5" width="104" height="104" rx="17.5" stroke="#0F1D3D"/>
<path d="M67.5309 67.9991H59.7544L41.0916 41.8048L22.4288 67.9991H14.6523L37.2034 36.3483L37.4517 36H44.7315L44.9798 36.3483L67.5309 67.9991Z" fill="#000614"/>
<path d="M48.3942 67.9991H46.2459H41.0928H35.9396H33.793L40.0195 59.2593L41.0928 57.7344L42.1661 59.2593L48.3942 67.9991Z" fill="#000614"/>
<path d="M88.3498 51.9996C88.3498 55.6311 87.1399 58.981 85.0999 61.6659C84.6583 62.2476 84.1783 62.7976 83.6633 63.3126C80.7684 66.2092 76.7685 67.9991 72.3503 67.9991H70.397L65.8838 61.6659H71.9903C77.2918 61.6659 81.6484 57.4094 81.6834 52.1079V51.8912C81.6484 46.5897 77.2918 42.3332 71.9903 42.3332H52.1092L47.5977 36H72.3503C77.5551 36 82.1783 38.4849 85.0999 42.3332C87.1399 45.0181 88.3498 48.368 88.3498 51.9996Z" fill="#000614"/>
</svg>
