<svg width="443" height="192" viewBox="0 0 443 192" fill="none" xmlns="http://www.w3.org/2000/svg">
<path d="M317.28 192H270.62L158.64 34.83L46.66 192H0L135.31 2.09L136.8 0H180.48L181.97 2.09L317.28 192Z" fill="#000614"/>
<path d="M202.454 192H189.564H158.644H127.724H114.844L152.204 139.56L158.644 130.41L165.084 139.56L202.454 192Z" fill="url(#paint0_linear_12_235)"/>
<path d="M442.192 96C442.192 117.79 434.932 137.89 422.692 154C420.042 157.49 417.162 160.79 414.072 163.88C396.702 181.26 372.702 192 346.192 192H334.472L307.392 154H344.032C375.842 154 401.982 128.46 402.192 96.65V95.35C401.982 63.54 375.842 38 344.032 38H224.742L197.672 0H346.192C377.422 0 405.162 14.91 422.692 38C434.932 54.11 442.192 74.21 442.192 96Z" fill="url(#paint1_linear_12_235)"/>
<defs>
<linearGradient id="paint0_linear_12_235" x1="114.399" y1="130.818" x2="147.705" y2="209.628" gradientUnits="userSpaceOnUse">
<stop offset="0.100755" stop-color="#60A5FA"/>
<stop offset="1" stop-color="#2563EB"/>
</linearGradient>
<linearGradient id="paint1_linear_12_235" x1="196.431" y1="1.27115" x2="308.208" y2="238.068" gradientUnits="userSpaceOnUse">
<stop offset="0.100755" stop-color="#60A5FA"/>
<stop offset="1" stop-color="#2563EB"/>
</linearGradient>
</defs>
</svg>
