<svg width="1650" height="192" viewBox="0 0 1650 192" fill="none" xmlns="http://www.w3.org/2000/svg">
<path d="M317.28 192H270.62L158.64 34.83L46.66 192H0L135.31 2.09L136.8 0H180.48L181.97 2.09L317.28 192Z" fill="#000614"/>
<path d="M202.454 192H189.564H158.644H127.724H114.844L152.204 139.56L158.644 130.41L165.084 139.56L202.454 192Z" fill="url(#paint0_linear_12_234)"/>
<path d="M442.192 96C442.192 117.79 434.932 137.89 422.692 154C420.042 157.49 417.162 160.79 414.072 163.88C396.702 181.26 372.702 192 346.192 192H334.472L307.392 154H344.032C375.842 154 401.982 128.46 402.192 96.65V95.35C401.982 63.54 375.842 38 344.032 38H224.742L197.672 0H346.192C377.422 0 405.162 14.91 422.692 38C434.932 54.11 442.192 74.21 442.192 96Z" fill="url(#paint1_linear_12_234)"/>
<path d="M513.093 23.9297H512.195V168.071H513.093V23.9297Z" fill="#2563EB"/>
<path d="M657.386 104.312H644.026L620.236 57.3525L596.446 104.312H583.086L613.556 44.1725L614.496 42.3125H625.976L626.916 44.1725L657.386 104.312Z" fill="#000614"/>
<path d="M757.273 60.3125C757.273 63.1925 756.603 65.9025 755.403 68.3125C754.533 70.0725 753.373 71.6725 752.003 73.0425C748.743 76.2925 744.243 78.3125 739.273 78.3125H707.273V104.312H697.273V68.3125H739.123C743.533 68.3125 747.253 64.8125 747.273 60.4025V60.2225C747.253 55.8125 743.533 52.3125 739.123 52.3125H697.273V42.3125H739.273C746.333 42.3125 752.453 46.3825 755.403 52.3125C756.603 54.7225 757.273 57.4325 757.273 60.3125Z" fill="#000614"/>
<path d="M853.164 94.3086V104.309H797.164V68.3086H849.164V78.3086H807.164V94.3086H853.164Z" fill="#000614"/>
<path d="M797.164 42.3203V52.3203H853.164V42.3203H797.164Z" fill="#000614"/>
<path d="M925.945 63.8908L925.735 64.1208L919.215 71.3608L893.055 42.3008H906.505L925.945 63.8908Z" fill="#000614"/>
<path d="M962.334 104.31H948.884L929.984 83.3098L930.194 83.0799L936.704 75.8398L962.334 104.31Z" fill="#000614"/>
<path d="M962.866 42.3008L934.686 73.6008L927.966 81.0708L907.036 104.311H893.586L921.236 73.6008L927.966 66.1308L949.416 42.3008H962.866Z" fill="url(#paint2_linear_12_234)"/>
<path d="M1082.49 58.3125V88.3125C1082.49 97.1525 1075.33 104.312 1066.49 104.312H1022.49V68.0025H1032.49V94.3125H1060.49C1067.12 94.3125 1072.49 88.9425 1072.49 82.3125V64.3125C1072.49 57.6825 1067.12 52.3125 1060.49 52.3125H1022.49V42.3125H1066.49C1075.33 42.3125 1082.49 49.4725 1082.49 58.3125Z" fill="#000614"/>
<path d="M1156.37 78.3125L1182.38 104.312H1168.24L1142.24 78.3125H1132.38V104.312H1122.38V68.3125H1164.23C1168.64 68.3125 1172.36 64.8125 1172.38 60.4025V60.2225C1172.36 55.8125 1168.64 52.3125 1164.23 52.3125H1122.38V42.3125H1164.38C1171.44 42.3125 1177.56 46.3825 1180.51 52.3125C1181.71 54.7225 1182.38 57.4325 1182.38 60.3125C1182.38 63.1925 1181.71 65.9025 1180.51 68.3125C1179.64 70.0725 1178.48 71.6725 1177.11 73.0425C1173.85 76.2925 1169.35 78.3125 1164.38 78.3125H1156.37Z" fill="#000614"/>
<path d="M1232.27 42.3125H1222.27V104.312H1232.27V42.3125Z" fill="#000614"/>
<path d="M1272.16 42.3125H1285.52L1309.31 89.2725L1333.1 42.3125H1346.46L1315.99 102.453L1315.05 104.312H1303.57L1302.63 102.453L1272.16 42.3125Z" fill="#000614"/>
<path d="M1442.09 94.3125V104.312H1386.09V68.3125H1438.09V78.3125H1396.09V94.3125H1442.09Z" fill="#000614"/>
<path d="M1386.09 42.3125V52.3125H1442.09V42.3125H1386.09Z" fill="#000614"/>
<path d="M1515.98 42.3008C1497.2 42.3008 1481.98 56.1808 1481.98 73.3008C1481.98 90.4208 1497.2 104.311 1515.98 104.311C1534.76 104.311 1549.98 90.4308 1549.98 73.3008C1549.98 56.1708 1534.76 42.3008 1515.98 42.3008ZM1515.98 95.4408C1502.58 95.4408 1491.71 85.5308 1491.71 73.3008C1491.71 61.0708 1502.58 51.1708 1515.98 51.1708C1529.38 51.1708 1540.25 61.0808 1540.25 73.3008C1540.25 85.5208 1529.38 95.4408 1515.98 95.4408Z" fill="url(#paint3_linear_12_234)"/>
<path d="M1631.72 94.3125H1589.88V104.312H1631.88C1636.85 104.312 1641.34 102.293 1644.6 99.0425C1645.97 97.6725 1647.14 96.0725 1648.01 94.3125C1649.21 91.9025 1649.88 89.1925 1649.88 86.3125C1649.88 83.4325 1649.21 80.7225 1648.01 78.3125C1645.06 72.3825 1638.94 68.3125 1631.88 68.3125H1608.03C1603.62 68.3125 1599.9 64.8125 1599.88 60.4025V60.2225C1599.9 55.8125 1603.62 52.3125 1608.03 52.3125H1649.88V42.3125H1607.88C1600.82 42.3125 1594.69 46.3825 1591.74 52.3125C1590.54 54.7225 1589.88 57.4325 1589.88 60.3125C1589.88 63.1925 1590.54 65.9025 1591.74 68.3125C1592.61 70.0725 1593.78 71.6725 1595.15 73.0425C1598.41 76.2925 1602.91 78.3125 1607.88 78.3125H1631.72C1636.13 78.3125 1639.85 81.8125 1639.88 86.2225V86.4025C1639.85 90.8125 1636.13 94.3125 1631.72 94.3125Z" fill="url(#paint4_linear_12_234)"/>
<path d="M641.847 149.512V138.252H637.727V136.492H647.727V138.252H643.797V149.512H641.857H641.847Z" fill="#000614"/>
<path d="M657.828 149.514V136.504H659.758V141.954H666.418V136.504H668.348V149.514H666.418V143.624H659.758V149.514H657.828Z" fill="#000614"/>
<path d="M679.695 149.514V136.504H688.105V138.174H681.635V142.124H687.405V143.774H681.625V147.814H688.255V149.514H679.695Z" fill="#000614"/>
<path d="M716.398 149.693C715.218 149.693 714.198 149.432 713.338 148.902C712.478 148.382 711.818 147.622 711.348 146.622C710.888 145.632 710.648 144.432 710.648 143.022C710.648 141.612 710.888 140.402 711.358 139.402C711.828 138.402 712.498 137.643 713.358 137.113C714.218 136.583 715.238 136.312 716.408 136.312C717.578 136.312 718.578 136.583 719.438 137.113C720.298 137.643 720.948 138.412 721.418 139.402C721.878 140.402 722.118 141.612 722.118 143.022C722.118 144.432 721.888 145.623 721.428 146.613C720.968 147.603 720.308 148.363 719.448 148.893C718.598 149.423 717.578 149.682 716.408 149.682L716.398 149.693ZM716.398 148.043C717.158 148.043 717.798 147.872 718.338 147.522C718.878 147.172 719.288 146.633 719.568 145.893C719.848 145.153 719.988 144.213 719.988 143.062C719.988 141.912 719.848 140.913 719.558 140.163C719.268 139.413 718.858 138.863 718.328 138.503C717.788 138.143 717.148 137.962 716.398 137.962C715.648 137.962 714.998 138.143 714.458 138.503C713.918 138.863 713.498 139.423 713.198 140.173C712.898 140.923 712.758 141.883 712.758 143.062C712.758 144.242 712.908 145.162 713.198 145.902C713.488 146.632 713.908 147.182 714.458 147.522C714.998 147.872 715.648 148.043 716.398 148.043Z" fill="#000614"/>
<path d="M732.758 149.514V136.504H737.268C738.198 136.504 739.028 136.664 739.768 136.984C740.498 137.304 741.078 137.774 741.508 138.384C741.928 139.004 742.138 139.764 742.138 140.664C742.138 141.564 741.948 142.264 741.558 142.874C741.168 143.484 740.628 143.944 739.938 144.274C739.248 144.604 738.438 144.754 737.528 144.754H734.718V149.524H732.758V149.514ZM734.708 143.174H737.468C738.298 143.174 738.968 142.934 739.498 142.454C740.018 141.974 740.278 141.344 740.278 140.554C740.278 139.764 740.008 139.134 739.468 138.704C738.928 138.274 738.238 138.064 737.398 138.064H734.708V143.174Z" fill="#000614"/>
<path d="M752.359 149.514V136.504H760.769V138.174H754.299V142.124H760.069V143.774H754.289V147.814H760.919V149.514H752.359Z" fill="#000614"/>
<path d="M771.76 149.514V136.504H776.93C777.9 136.504 778.7 136.654 779.33 136.954C779.97 137.254 780.44 137.674 780.75 138.214C781.06 138.764 781.22 139.404 781.22 140.154C781.22 140.854 781.1 141.444 780.86 141.914C780.62 142.384 780.32 142.764 779.94 143.054C779.56 143.344 779.17 143.584 778.76 143.744L781.28 149.524H779.25L776.95 144.084H773.68V149.524H771.75L771.76 149.514ZM773.69 142.514H776.41C777.32 142.514 778.02 142.314 778.52 141.924C779.02 141.534 779.27 140.964 779.27 140.234C779.27 139.504 779.04 138.964 778.59 138.594C778.14 138.224 777.52 138.034 776.75 138.034H773.7V142.504L773.69 142.514Z" fill="#000614"/>
<path d="M791.195 149.514L795.895 136.504H798.015L802.705 149.514H800.765L799.545 146.104H794.385L793.155 149.514H791.205H791.195ZM794.855 144.354H799.035L796.945 138.374L794.855 144.354Z" fill="#000614"/>
<path d="M814.378 149.512V138.252H810.258V136.492H820.258V138.252H816.328V149.512H814.388H814.378Z" fill="#000614"/>
<path d="M830.367 149.514V136.504H832.297V149.514H830.367Z" fill="#000614"/>
<path d="M843.643 149.514V136.504H845.503L852.123 146.204V136.504H854.063V149.514H852.333L845.563 139.604V149.514H843.633H843.643Z" fill="#000614"/>
<path d="M870.339 149.694C869.179 149.694 868.179 149.434 867.339 148.904C866.499 148.374 865.849 147.614 865.399 146.624C864.949 145.634 864.719 144.434 864.719 143.044C864.719 141.654 864.949 140.434 865.419 139.434C865.879 138.434 866.549 137.664 867.399 137.124C868.259 136.594 869.269 136.324 870.419 136.324C871.109 136.324 871.749 136.444 872.339 136.674C872.929 136.904 873.449 137.224 873.909 137.624C874.359 138.024 874.719 138.484 874.989 138.994C875.249 139.504 875.399 140.034 875.439 140.594H873.389C873.309 140.134 873.129 139.704 872.849 139.314C872.579 138.924 872.229 138.604 871.809 138.364C871.389 138.124 870.919 138.004 870.389 138.004C869.689 138.004 869.069 138.174 868.529 138.524C867.989 138.874 867.569 139.414 867.269 140.144C866.969 140.874 866.819 141.824 866.819 142.994C866.819 143.904 866.909 144.674 867.099 145.304C867.289 145.944 867.549 146.454 867.879 146.844C868.209 147.234 868.599 147.514 869.039 147.694C869.479 147.874 869.959 147.964 870.459 147.964C870.959 147.964 871.399 147.874 871.769 147.704C872.149 147.534 872.459 147.304 872.719 147.034C872.979 146.764 873.169 146.464 873.309 146.134C873.449 145.804 873.529 145.504 873.559 145.204L873.619 144.154H870.579V142.764L875.629 142.784V149.514H874.239V147.604C874.009 147.954 873.729 148.294 873.379 148.614C873.029 148.934 872.619 149.194 872.119 149.394C871.619 149.594 871.029 149.694 870.339 149.694Z" fill="#000614"/>
<path d="M903.688 149.692C903.048 149.692 902.438 149.612 901.858 149.462C901.278 149.302 900.738 149.072 900.268 148.762C899.788 148.452 899.398 148.072 899.088 147.602C898.778 147.142 898.588 146.602 898.508 145.982H900.518C900.618 146.452 900.818 146.842 901.128 147.162C901.428 147.482 901.808 147.722 902.268 147.882C902.728 148.042 903.238 148.122 903.798 148.122C904.318 148.122 904.788 148.042 905.228 147.882C905.668 147.722 906.018 147.482 906.288 147.182C906.558 146.872 906.698 146.502 906.698 146.062C906.698 145.562 906.528 145.172 906.198 144.882C905.868 144.592 905.368 144.362 904.698 144.182L902.088 143.532C901.458 143.382 900.908 143.172 900.428 142.892C899.948 142.612 899.578 142.242 899.308 141.782C899.048 141.322 898.908 140.752 898.908 140.072C898.908 139.312 899.118 138.662 899.538 138.092C899.958 137.522 900.518 137.102 901.238 136.792C901.958 136.482 902.768 136.332 903.668 136.332C904.708 136.332 905.578 136.512 906.288 136.862C906.998 137.212 907.538 137.682 907.908 138.262C908.278 138.842 908.468 139.472 908.468 140.152H906.508C906.458 139.602 906.288 139.162 906.018 138.832C905.748 138.502 905.398 138.272 904.988 138.122C904.568 137.982 904.108 137.902 903.608 137.902C902.718 137.902 902.048 138.102 901.608 138.492C901.158 138.882 900.938 139.352 900.938 139.892C900.938 140.392 901.098 140.782 901.428 141.072C901.758 141.362 902.238 141.582 902.878 141.742L905.398 142.362C906.188 142.532 906.828 142.792 907.298 143.142C907.778 143.492 908.118 143.892 908.328 144.362C908.538 144.832 908.648 145.332 908.648 145.892C908.648 146.632 908.438 147.282 908.028 147.862C907.618 148.432 907.038 148.882 906.298 149.212C905.558 149.542 904.688 149.702 903.698 149.702L903.688 149.692Z" fill="#000614"/>
<path d="M921.866 149.512V143.982L917.406 136.492H919.516L922.846 142.282L926.136 136.492H928.246L923.806 143.992V149.512H921.876H921.866Z" fill="#000614"/>
<path d="M941.93 149.692C941.29 149.692 940.68 149.612 940.1 149.462C939.52 149.302 938.98 149.072 938.51 148.762C938.03 148.452 937.64 148.072 937.33 147.602C937.02 147.142 936.83 146.602 936.75 145.982H938.76C938.86 146.452 939.06 146.842 939.37 147.162C939.67 147.482 940.05 147.722 940.51 147.882C940.97 148.042 941.48 148.122 942.04 148.122C942.56 148.122 943.03 148.042 943.47 147.882C943.91 147.722 944.26 147.482 944.53 147.182C944.8 146.872 944.94 146.502 944.94 146.062C944.94 145.562 944.77 145.172 944.44 144.882C944.11 144.592 943.61 144.362 942.94 144.182L940.33 143.532C939.7 143.382 939.15 143.172 938.67 142.892C938.19 142.612 937.82 142.242 937.55 141.782C937.29 141.322 937.15 140.752 937.15 140.072C937.15 139.312 937.36 138.662 937.78 138.092C938.2 137.522 938.76 137.102 939.48 136.792C940.2 136.482 941.01 136.332 941.91 136.332C942.95 136.332 943.82 136.512 944.53 136.862C945.24 137.212 945.78 137.682 946.15 138.262C946.52 138.842 946.71 139.472 946.71 140.152H944.75C944.7 139.602 944.53 139.162 944.26 138.832C943.99 138.502 943.64 138.272 943.23 138.122C942.81 137.982 942.35 137.902 941.85 137.902C940.96 137.902 940.29 138.102 939.85 138.492C939.4 138.882 939.18 139.352 939.18 139.892C939.18 140.392 939.34 140.782 939.67 141.072C940 141.362 940.48 141.582 941.12 141.742L943.64 142.362C944.43 142.532 945.07 142.792 945.54 143.142C946.02 143.492 946.36 143.892 946.57 144.362C946.78 144.832 946.89 145.332 946.89 145.892C946.89 146.632 946.68 147.282 946.27 147.862C945.86 148.432 945.28 148.882 944.54 149.212C943.8 149.542 942.93 149.702 941.94 149.702L941.93 149.692Z" fill="#000614"/>
<path d="M960.268 149.512V138.252H956.148V136.492H966.148V138.252H962.218V149.512H960.278H960.268Z" fill="#000614"/>
<path d="M976.258 149.514V136.504H984.668V138.174H978.198V142.124H983.968V143.774H978.188V147.814H984.818V149.514H976.258Z" fill="#000614"/>
<path d="M995.656 149.514V136.504H998.376L1002.04 146.854L1005.76 136.504H1008.46V149.514H1006.49V139.144L1002.89 149.514H1001.21L997.626 139.224V149.514H995.666H995.656Z" fill="#000614"/>
<path d="M1032.16 149.514V136.504H1040.48V138.164H1034.13V142.184H1039.77V143.824H1034.13V149.524H1032.17L1032.16 149.514Z" fill="#000614"/>
<path d="M1056.05 149.693C1054.87 149.693 1053.85 149.432 1052.99 148.902C1052.13 148.382 1051.47 147.622 1051 146.622C1050.53 145.632 1050.3 144.432 1050.3 143.022C1050.3 141.612 1050.54 140.402 1051.01 139.402C1051.48 138.402 1052.15 137.643 1053.01 137.113C1053.87 136.583 1054.89 136.312 1056.06 136.312C1057.23 136.312 1058.23 136.583 1059.09 137.113C1059.94 137.643 1060.6 138.412 1061.07 139.402C1061.54 140.392 1061.77 141.612 1061.77 143.022C1061.77 144.432 1061.54 145.623 1061.08 146.613C1060.62 147.603 1059.96 148.363 1059.1 148.893C1058.24 149.423 1057.23 149.682 1056.06 149.682L1056.05 149.693ZM1056.05 148.043C1056.81 148.043 1057.45 147.872 1057.99 147.522C1058.53 147.172 1058.94 146.633 1059.22 145.893C1059.5 145.153 1059.64 144.213 1059.64 143.062C1059.64 141.912 1059.5 140.913 1059.21 140.163C1058.92 139.413 1058.51 138.863 1057.98 138.503C1057.44 138.143 1056.8 137.962 1056.05 137.962C1055.3 137.962 1054.65 138.143 1054.11 138.503C1053.57 138.863 1053.15 139.423 1052.86 140.173C1052.57 140.923 1052.42 141.883 1052.42 143.062C1052.42 144.242 1052.57 145.162 1052.86 145.902C1053.15 146.632 1053.57 147.182 1054.11 147.522C1054.65 147.872 1055.3 148.043 1056.05 148.043Z" fill="#000614"/>
<path d="M1072.41 149.514V136.504H1077.58C1078.55 136.504 1079.35 136.654 1079.98 136.954C1080.62 137.254 1081.09 137.674 1081.4 138.214C1081.71 138.764 1081.87 139.404 1081.87 140.154C1081.87 140.854 1081.75 141.444 1081.51 141.914C1081.27 142.384 1080.97 142.764 1080.59 143.054C1080.21 143.344 1079.82 143.584 1079.41 143.744L1081.93 149.524H1079.91L1077.61 144.084H1074.34V149.524H1072.41V149.514ZM1074.34 142.514H1077.06C1077.97 142.514 1078.67 142.314 1079.17 141.924C1079.67 141.534 1079.92 140.964 1079.92 140.234C1079.92 139.504 1079.69 138.964 1079.24 138.594C1078.79 138.224 1078.17 138.034 1077.4 138.034H1074.35V142.504L1074.34 142.514Z" fill="#000614"/>
<path d="M1105.09 149.514V136.504H1107.05V147.824H1113.06V149.514H1105.09Z" fill="#000614"/>
<path d="M1128.01 149.692C1126.85 149.692 1125.9 149.502 1125.19 149.112C1124.47 148.732 1123.95 148.172 1123.62 147.432C1123.29 146.692 1123.12 145.792 1123.12 144.732V136.492H1125.12V144.972C1125.12 146.002 1125.37 146.772 1125.88 147.272C1126.38 147.772 1127.1 148.022 1128.01 148.022C1128.62 148.022 1129.14 147.912 1129.58 147.692C1130.02 147.472 1130.36 147.142 1130.59 146.682C1130.82 146.232 1130.94 145.662 1130.94 144.972V136.492H1132.89V144.882C1132.89 145.892 1132.72 146.762 1132.39 147.482C1132.05 148.202 1131.53 148.742 1130.81 149.122C1130.09 149.502 1129.16 149.692 1128.01 149.692Z" fill="#000614"/>
<path d="M1142.95 149.514L1147.34 142.884L1143.1 136.504H1145.48L1148.55 141.264L1151.59 136.504H1153.68L1149.57 142.674L1154.13 149.524H1151.74L1148.38 144.344L1145.07 149.524H1142.95V149.514Z" fill="#000614"/>
<path d="M1169.18 149.692C1168.02 149.692 1167.07 149.502 1166.36 149.112C1165.64 148.732 1165.12 148.172 1164.79 147.432C1164.46 146.692 1164.3 145.792 1164.3 144.732V136.492H1166.29V144.972C1166.29 146.002 1166.54 146.772 1167.05 147.272C1167.56 147.772 1168.27 148.022 1169.18 148.022C1169.79 148.022 1170.31 147.912 1170.75 147.692C1171.19 147.472 1171.53 147.142 1171.76 146.682C1171.99 146.232 1172.11 145.662 1172.11 144.972V136.492H1174.06V144.882C1174.06 145.892 1173.89 146.762 1173.56 147.482C1173.22 148.202 1172.7 148.742 1171.98 149.122C1171.26 149.502 1170.33 149.692 1169.18 149.692Z" fill="#000614"/>
<path d="M1185.09 149.514V136.504H1190.26C1191.23 136.504 1192.03 136.654 1192.66 136.954C1193.3 137.254 1193.77 137.674 1194.08 138.214C1194.39 138.764 1194.55 139.404 1194.55 140.154C1194.55 140.854 1194.43 141.444 1194.19 141.914C1193.95 142.384 1193.65 142.764 1193.27 143.054C1192.89 143.344 1192.5 143.584 1192.09 143.744L1194.61 149.524H1192.58L1190.28 144.084H1187.01V149.524H1185.08L1185.09 149.514ZM1187.02 142.514H1189.74C1190.65 142.514 1191.35 142.314 1191.85 141.924C1192.35 141.534 1192.6 140.964 1192.6 140.234C1192.6 139.504 1192.37 138.964 1191.92 138.594C1191.47 138.224 1190.85 138.034 1190.08 138.034H1187.03V142.504L1187.02 142.514Z" fill="#000614"/>
<path d="M1208.15 149.512V143.982L1203.69 136.492H1205.8L1209.13 142.282L1212.42 136.492H1214.53L1210.09 143.992V149.512H1208.16H1208.15Z" fill="#000614"/>
<path d="M1235.52 149.514L1240.22 136.504H1242.34L1247.03 149.514H1245.09L1243.87 146.104H1238.71L1237.48 149.514H1235.53H1235.52ZM1239.18 144.354H1243.36L1241.27 138.374L1239.18 144.354Z" fill="#000614"/>
<path d="M1261.64 149.692C1260.48 149.692 1259.53 149.502 1258.82 149.112C1258.1 148.732 1257.58 148.172 1257.25 147.432C1256.92 146.692 1256.76 145.792 1256.76 144.732V136.492H1258.75V144.972C1258.75 146.002 1259 146.772 1259.51 147.272C1260.02 147.772 1260.73 148.022 1261.64 148.022C1262.25 148.022 1262.77 147.912 1263.21 147.692C1263.65 147.472 1263.99 147.142 1264.22 146.682C1264.45 146.232 1264.57 145.662 1264.57 144.972V136.492H1266.52V144.882C1266.52 145.892 1266.35 146.762 1266.02 147.482C1265.68 148.202 1265.16 148.742 1264.44 149.122C1263.72 149.502 1262.79 149.692 1261.64 149.692Z" fill="#000614"/>
<path d="M1280.42 149.512V138.252H1276.3V136.492H1286.3V138.252H1282.37V149.512H1280.43H1280.42Z" fill="#000614"/>
<path d="M1301.34 149.693C1300.16 149.693 1299.14 149.432 1298.28 148.902C1297.42 148.382 1296.76 147.622 1296.29 146.622C1295.83 145.632 1295.59 144.432 1295.59 143.022C1295.59 141.612 1295.83 140.402 1296.3 139.402C1296.77 138.402 1297.44 137.643 1298.3 137.113C1299.16 136.583 1300.18 136.312 1301.35 136.312C1302.52 136.312 1303.52 136.583 1304.38 137.113C1305.23 137.643 1305.89 138.412 1306.36 139.402C1306.83 140.392 1307.06 141.612 1307.06 143.022C1307.06 144.432 1306.83 145.623 1306.37 146.613C1305.91 147.603 1305.25 148.363 1304.39 148.893C1303.54 149.423 1302.52 149.682 1301.35 149.682L1301.34 149.693ZM1301.34 148.043C1302.1 148.043 1302.74 147.872 1303.28 147.522C1303.82 147.172 1304.23 146.633 1304.51 145.893C1304.79 145.153 1304.93 144.213 1304.93 143.062C1304.93 141.912 1304.79 140.913 1304.5 140.163C1304.21 139.413 1303.8 138.863 1303.27 138.503C1302.73 138.143 1302.09 137.962 1301.34 137.962C1300.59 137.962 1299.94 138.143 1299.4 138.503C1298.86 138.863 1298.44 139.423 1298.14 140.173C1297.84 140.923 1297.7 141.883 1297.7 143.062C1297.7 144.242 1297.85 145.162 1298.14 145.902C1298.43 146.632 1298.85 147.182 1299.4 147.522C1299.94 147.872 1300.59 148.043 1301.34 148.043Z" fill="#000614"/>
<path d="M1317.7 149.514V136.504H1320.42L1324.08 146.854L1327.8 136.504H1330.5V149.514H1328.53V139.144L1324.93 149.514H1323.25L1319.67 139.224V149.514H1317.71H1317.7Z" fill="#000614"/>
<path d="M1346.91 149.693C1345.73 149.693 1344.71 149.432 1343.85 148.902C1342.99 148.382 1342.33 147.622 1341.86 146.622C1341.4 145.632 1341.16 144.432 1341.16 143.022C1341.16 141.612 1341.4 140.402 1341.87 139.402C1342.34 138.402 1343.01 137.643 1343.87 137.113C1344.73 136.583 1345.75 136.312 1346.92 136.312C1348.09 136.312 1349.09 136.583 1349.95 137.113C1350.8 137.643 1351.46 138.412 1351.93 139.402C1352.4 140.392 1352.63 141.612 1352.63 143.022C1352.63 144.432 1352.4 145.623 1351.94 146.613C1351.48 147.603 1350.82 148.363 1349.96 148.893C1349.11 149.423 1348.09 149.682 1346.92 149.682L1346.91 149.693ZM1346.91 148.043C1347.67 148.043 1348.31 147.872 1348.85 147.522C1349.39 147.172 1349.8 146.633 1350.08 145.893C1350.36 145.153 1350.5 144.213 1350.5 143.062C1350.5 141.912 1350.36 140.913 1350.07 140.163C1349.78 139.413 1349.37 138.863 1348.84 138.503C1348.3 138.143 1347.66 137.962 1346.91 137.962C1346.16 137.962 1345.51 138.143 1344.97 138.503C1344.43 138.863 1344.01 139.423 1343.71 140.173C1343.41 140.923 1343.27 141.883 1343.27 143.062C1343.27 144.242 1343.42 145.162 1343.71 145.902C1344 146.632 1344.42 147.182 1344.97 147.522C1345.51 147.872 1346.16 148.043 1346.91 148.043Z" fill="#000614"/>
<path d="M1366.28 149.512V138.252H1362.16V136.492H1372.16V138.252H1368.23V149.512H1366.29H1366.28Z" fill="#000614"/>
<path d="M1382.27 149.514V136.504H1384.2V149.514H1382.27Z" fill="#000614"/>
<path d="M1398.9 149.514L1394.3 136.504H1396.18L1400.03 147.314L1403.87 136.504H1405.76L1401.16 149.514H1398.89H1398.9Z" fill="#000614"/>
<path d="M1415.88 149.514V136.504H1424.29V138.174H1417.82V142.124H1423.59V143.774H1417.81V147.814H1424.44V149.514H1415.88Z" fill="#000614"/>
<path d="M1447.52 149.514V136.504H1451.85C1453.46 136.504 1454.68 136.794 1455.5 137.374C1456.32 137.954 1456.73 138.794 1456.73 139.894C1456.73 140.574 1456.56 141.154 1456.2 141.644C1455.85 142.134 1455.24 142.544 1454.36 142.874C1454.88 142.984 1455.31 143.154 1455.66 143.364C1456.01 143.574 1456.28 143.824 1456.48 144.094C1456.68 144.364 1456.82 144.674 1456.91 144.994C1457 145.314 1457.04 145.654 1457.04 146.004C1457.04 147.184 1456.62 148.064 1455.79 148.644C1454.96 149.224 1453.69 149.514 1452 149.514H1447.52ZM1449.45 142.134H1452.2C1452.52 142.134 1452.84 142.104 1453.15 142.034C1453.46 141.964 1453.75 141.854 1454 141.704C1454.26 141.554 1454.46 141.344 1454.62 141.084C1454.78 140.824 1454.85 140.514 1454.85 140.134C1454.85 139.424 1454.58 138.904 1454.05 138.564C1453.52 138.224 1452.82 138.054 1451.97 138.054H1449.44V142.134H1449.45ZM1449.45 147.944H1452.01C1453.02 147.944 1453.78 147.774 1454.3 147.424C1454.82 147.084 1455.08 146.564 1455.08 145.874C1455.08 145.374 1454.95 144.964 1454.69 144.654C1454.43 144.344 1454.08 144.104 1453.65 143.954C1453.21 143.804 1452.72 143.724 1452.18 143.724H1449.43V147.944H1449.45Z" fill="#000614"/>
<path d="M1472.6 149.692C1471.44 149.692 1470.49 149.502 1469.78 149.112C1469.06 148.732 1468.54 148.172 1468.21 147.432C1467.88 146.692 1467.72 145.792 1467.72 144.732V136.492H1469.71V144.972C1469.71 146.002 1469.96 146.772 1470.47 147.272C1470.98 147.772 1471.69 148.022 1472.6 148.022C1473.21 148.022 1473.73 147.912 1474.17 147.692C1474.61 147.472 1474.95 147.142 1475.18 146.682C1475.41 146.232 1475.53 145.662 1475.53 144.972V136.492H1477.48V144.882C1477.48 145.892 1477.31 146.762 1476.98 147.482C1476.64 148.202 1476.12 148.742 1475.4 149.122C1474.68 149.502 1473.75 149.692 1472.6 149.692Z" fill="#000614"/>
<path d="M1493.05 149.692C1492.41 149.692 1491.8 149.612 1491.22 149.462C1490.64 149.302 1490.1 149.072 1489.63 148.762C1489.15 148.452 1488.76 148.072 1488.45 147.602C1488.14 147.142 1487.95 146.602 1487.87 145.982H1489.88C1489.98 146.452 1490.18 146.842 1490.49 147.162C1490.79 147.482 1491.17 147.722 1491.63 147.882C1492.09 148.042 1492.6 148.122 1493.16 148.122C1493.68 148.122 1494.15 148.042 1494.59 147.882C1495.03 147.722 1495.38 147.482 1495.65 147.182C1495.92 146.872 1496.05 146.502 1496.05 146.062C1496.05 145.562 1495.88 145.172 1495.55 144.882C1495.22 144.592 1494.72 144.362 1494.05 144.182L1491.44 143.532C1490.81 143.382 1490.25 143.172 1489.77 142.892C1489.29 142.612 1488.92 142.242 1488.65 141.782C1488.38 141.322 1488.25 140.752 1488.25 140.072C1488.25 139.312 1488.46 138.662 1488.88 138.092C1489.3 137.522 1489.86 137.102 1490.58 136.792C1491.3 136.482 1492.11 136.332 1493.01 136.332C1494.05 136.332 1494.92 136.512 1495.63 136.862C1496.34 137.212 1496.88 137.682 1497.25 138.262C1497.62 138.842 1497.81 139.472 1497.81 140.152H1495.85C1495.8 139.602 1495.63 139.162 1495.36 138.832C1495.09 138.502 1494.74 138.272 1494.32 138.122C1493.9 137.982 1493.44 137.902 1492.94 137.902C1492.05 137.902 1491.38 138.102 1490.94 138.492C1490.49 138.882 1490.27 139.352 1490.27 139.892C1490.27 140.392 1490.43 140.782 1490.76 141.072C1491.09 141.362 1491.57 141.582 1492.21 141.742L1494.73 142.362C1495.52 142.532 1496.16 142.792 1496.63 143.142C1497.11 143.492 1497.45 143.892 1497.66 144.362C1497.87 144.822 1497.97 145.332 1497.97 145.892C1497.97 146.632 1497.76 147.282 1497.35 147.862C1496.94 148.432 1496.36 148.882 1495.62 149.212C1494.88 149.542 1494.01 149.702 1493.02 149.702L1493.05 149.692Z" fill="#000614"/>
<path d="M1508.69 149.514V136.504H1510.62V149.514H1508.69Z" fill="#000614"/>
<path d="M1521.98 149.514V136.504H1523.84L1530.46 146.204V136.504H1532.4V149.514H1530.67L1523.9 139.604V149.514H1521.97H1521.98Z" fill="#000614"/>
<path d="M1543.75 149.514V136.504H1552.16V138.174H1545.69V142.124H1551.46V143.774H1545.68V147.814H1552.31V149.514H1543.75Z" fill="#000614"/>
<path d="M1567.66 149.692C1567.02 149.692 1566.41 149.612 1565.83 149.462C1565.25 149.302 1564.71 149.072 1564.24 148.762C1563.76 148.452 1563.37 148.072 1563.06 147.602C1562.75 147.142 1562.56 146.602 1562.48 145.982H1564.49C1564.59 146.452 1564.79 146.842 1565.1 147.162C1565.4 147.482 1565.78 147.722 1566.24 147.882C1566.7 148.042 1567.21 148.122 1567.77 148.122C1568.29 148.122 1568.76 148.042 1569.2 147.882C1569.64 147.722 1569.99 147.482 1570.26 147.182C1570.53 146.872 1570.66 146.502 1570.66 146.062C1570.66 145.562 1570.49 145.172 1570.16 144.882C1569.83 144.592 1569.33 144.362 1568.66 144.182L1566.05 143.532C1565.42 143.382 1564.86 143.172 1564.38 142.892C1563.9 142.612 1563.53 142.242 1563.26 141.782C1562.99 141.322 1562.86 140.752 1562.86 140.072C1562.86 139.312 1563.07 138.662 1563.49 138.092C1563.91 137.522 1564.47 137.102 1565.19 136.792C1565.91 136.482 1566.72 136.332 1567.62 136.332C1568.66 136.332 1569.53 136.512 1570.24 136.862C1570.95 137.212 1571.49 137.682 1571.86 138.262C1572.23 138.842 1572.42 139.472 1572.42 140.152H1570.46C1570.41 139.602 1570.24 139.162 1569.97 138.832C1569.7 138.502 1569.35 138.272 1568.93 138.122C1568.51 137.982 1568.05 137.902 1567.55 137.902C1566.66 137.902 1565.99 138.102 1565.55 138.492C1565.1 138.882 1564.88 139.352 1564.88 139.892C1564.88 140.392 1565.04 140.782 1565.37 141.072C1565.7 141.362 1566.18 141.582 1566.82 141.742L1569.34 142.362C1570.13 142.532 1570.77 142.792 1571.24 143.142C1571.72 143.492 1572.06 143.892 1572.27 144.362C1572.48 144.822 1572.58 145.332 1572.58 145.892C1572.58 146.632 1572.37 147.282 1571.96 147.862C1571.55 148.432 1570.97 148.882 1570.23 149.212C1569.49 149.542 1568.62 149.702 1567.63 149.702L1567.66 149.692Z" fill="#000614"/>
<path d="M1588.02 149.692C1587.38 149.692 1586.77 149.612 1586.19 149.462C1585.61 149.302 1585.07 149.072 1584.6 148.762C1584.12 148.452 1583.73 148.072 1583.42 147.602C1583.11 147.142 1582.92 146.602 1582.84 145.982H1584.85C1584.95 146.452 1585.15 146.842 1585.46 147.162C1585.76 147.482 1586.14 147.722 1586.6 147.882C1587.06 148.042 1587.57 148.122 1588.13 148.122C1588.65 148.122 1589.12 148.042 1589.56 147.882C1590 147.722 1590.35 147.482 1590.62 147.182C1590.89 146.872 1591.02 146.502 1591.02 146.062C1591.02 145.562 1590.85 145.172 1590.52 144.882C1590.19 144.592 1589.69 144.362 1589.02 144.182L1586.41 143.532C1585.78 143.382 1585.22 143.172 1584.74 142.892C1584.26 142.612 1583.89 142.242 1583.62 141.782C1583.35 141.322 1583.22 140.752 1583.22 140.072C1583.22 139.312 1583.43 138.662 1583.85 138.092C1584.27 137.522 1584.83 137.102 1585.55 136.792C1586.27 136.482 1587.08 136.332 1587.98 136.332C1589.02 136.332 1589.89 136.512 1590.6 136.862C1591.31 137.212 1591.85 137.682 1592.22 138.262C1592.59 138.842 1592.78 139.472 1592.78 140.152H1590.82C1590.77 139.602 1590.6 139.162 1590.33 138.832C1590.06 138.502 1589.71 138.272 1589.29 138.122C1588.87 137.982 1588.41 137.902 1587.91 137.902C1587.02 137.902 1586.35 138.102 1585.91 138.492C1585.46 138.882 1585.24 139.352 1585.24 139.892C1585.24 140.392 1585.4 140.782 1585.73 141.072C1586.06 141.362 1586.54 141.582 1587.18 141.742L1589.7 142.362C1590.49 142.532 1591.13 142.792 1591.6 143.142C1592.08 143.492 1592.42 143.892 1592.63 144.362C1592.84 144.822 1592.94 145.332 1592.94 145.892C1592.94 146.632 1592.73 147.282 1592.32 147.862C1591.91 148.432 1591.33 148.882 1590.59 149.212C1589.85 149.542 1588.98 149.702 1587.99 149.702L1588.02 149.692Z" fill="#000614"/>
<path d="M1649.88 142.504H1602.98V143.504H1649.88V142.504Z" fill="#2563EB"/>
<path d="M629.986 142.504H583.086V143.504H629.986V142.504Z" fill="#2563EB"/>
<defs>
<linearGradient id="paint0_linear_12_234" x1="114.399" y1="130.818" x2="147.705" y2="209.628" gradientUnits="userSpaceOnUse">
<stop offset="0.100755" stop-color="#60A5FA"/>
<stop offset="1" stop-color="#2563EB"/>
</linearGradient>
<linearGradient id="paint1_linear_12_234" x1="196.431" y1="1.27115" x2="308.208" y2="238.068" gradientUnits="userSpaceOnUse">
<stop offset="0.100755" stop-color="#60A5FA"/>
<stop offset="1" stop-color="#2563EB"/>
</linearGradient>
<linearGradient id="paint2_linear_12_234" x1="893.234" y1="42.7113" x2="932.256" y2="115.233" gradientUnits="userSpaceOnUse">
<stop offset="0.100755" stop-color="#60A5FA"/>
<stop offset="1" stop-color="#2563EB"/>
</linearGradient>
<linearGradient id="paint3_linear_12_234" x1="1481.64" y1="42.7113" x2="1521.06" y2="114.62" gradientUnits="userSpaceOnUse">
<stop offset="0.100755" stop-color="#60A5FA"/>
<stop offset="1" stop-color="#2563EB"/>
</linearGradient>
<linearGradient id="paint4_linear_12_234" x1="1589.57" y1="42.723" x2="1631.48" y2="110.192" gradientUnits="userSpaceOnUse">
<stop offset="0.100755" stop-color="#60A5FA"/>
<stop offset="1" stop-color="#2563EB"/>
</linearGradient>
</defs>
</svg>
