<svg width="1515" height="280" viewBox="0 0 1515 280" fill="none" xmlns="http://www.w3.org/2000/svg">
<path d="M194.663 159.116H163.387L20.9202 30.8399V178.816L0 199.736V12.0116L0.139445 12.1337C0.0522772 11.5932 0 11.0354 0 10.4601C0 4.68962 4.67218 0 10.4601 0H13.9294C16.5095 0 19.0025 0.958805 20.9202 2.68472L171.005 137.812L194.663 159.116Z" fill="#000614"/>
<path d="M194.663 159.116H163.387L20.9202 30.8399V178.816L0 199.736V12.0116L0.139445 12.1337C0.0522772 11.5932 0 11.0354 0 10.4601C0 4.68962 4.67218 0 10.4601 0H13.9294C16.5095 0 19.0025 0.958805 20.9202 2.68472L171.005 137.812L194.663 159.116Z" fill="url(#paint0_linear_12_447)"/>
<path d="M43.9766 120.862H75.2523L217.719 249.138V101.162L238.639 80.2422V267.966L238.5 267.844C238.587 268.385 238.639 268.943 238.639 269.518C238.639 275.288 233.967 279.978 228.179 279.978H224.71C222.13 279.978 219.637 279.019 217.719 277.293L67.6339 142.166L43.9766 120.862Z" fill="#000614"/>
<path d="M43.9766 120.862H75.2523L217.719 249.138V101.162L238.639 80.2422V267.966L238.5 267.844C238.587 268.385 238.639 268.943 238.639 269.518C238.639 275.288 233.967 279.978 228.179 279.978H224.71C222.13 279.978 219.637 279.019 217.719 277.293L67.6339 142.166L43.9766 120.862Z" fill="url(#paint1_linear_12_447)"/>
<path d="M344.993 0H343.25V280H344.993V0Z" fill="#2563EB"/>
<path d="M554.203 0V108.088H536.769L467.035 21.6175V108.088H449.602V0H467.035L536.769 86.4702V0H554.203Z" fill="#E6ECF3"/>
<path d="M740.057 90.6514V108.085H642.43V45.3242H733.084V62.7577H659.863V90.6514H740.057Z" fill="#E6ECF3"/>
<path d="M642.43 0.0117912V17.4453L740.057 17.4453V0.0117912L642.43 0.0117912Z" fill="#E6ECF3"/>
<path d="M875.237 37.6389L874.871 38.04L863.505 50.6618L817.898 0H841.347L875.237 37.6389Z" fill="#E6ECF3"/>
<path d="M938.671 108.106H915.223L882.273 71.4954L882.639 71.0945L893.989 58.4727L938.671 108.106Z" fill="#E6ECF3"/>
<path d="M939.6 0L890.472 54.5669L878.757 67.5897L842.268 108.105H818.82L867.024 54.5669L878.757 41.544L916.152 0H939.6Z" fill="url(#paint2_linear_12_447)"/>
<path d="M1072.13 0C1039.39 0 1012.85 24.1977 1012.85 54.0439C1012.85 83.8901 1039.39 108.105 1072.13 108.105C1104.87 108.105 1131.4 83.9075 1131.4 54.0439C1131.4 24.1803 1104.87 0 1072.13 0ZM1072.13 92.6417C1048.76 92.6417 1029.81 75.3651 1029.81 54.0439C1029.81 32.7227 1048.76 15.4635 1072.13 15.4635C1095.49 15.4635 1114.44 32.7402 1114.44 54.0439C1114.44 75.3477 1095.49 92.6417 1072.13 92.6417Z" fill="#E6ECF3"/>
<path d="M1269.7 62.7607L1315.05 108.088H1290.4L1245.07 62.7607H1227.88V108.088H1210.45V45.3272H1283.4C1291.09 45.3272 1297.58 39.2254 1297.61 31.5372V31.2234C1297.58 23.5352 1291.09 17.4335 1283.4 17.4335H1210.45V0H1283.67C1295.97 0 1306.64 7.09544 1311.79 17.4335C1313.88 21.635 1315.05 26.3595 1315.05 31.3803C1315.05 36.4012 1313.88 41.1257 1311.79 45.3272C1310.27 48.3955 1308.25 51.1848 1305.86 53.5732C1300.18 59.2391 1292.33 62.7607 1283.67 62.7607H1269.7Z" fill="#E6ECF3"/>
<path d="M1514.11 108.088H1490.82L1449.34 26.22L1407.87 108.088H1384.58L1437.7 3.24261L1439.34 0H1459.35L1460.99 3.24261L1514.11 108.088Z" fill="#E6ECF3"/>
<path d="M461.807 199.756V166.441H449.586V160.496H480.217V166.441H468.432V199.756H461.807Z" fill="#2563EB"/>
<path d="M544.353 199.756V160.496H570.312L570.277 166.179H550.996V177.18H568.028V182.776H550.943V194.021L570.678 194.056V199.791H544.336L544.353 199.756Z" fill="#2563EB"/>
<path d="M651.849 200.292C648.24 200.292 645.154 199.473 642.574 197.799C639.994 196.143 638.007 193.789 636.629 190.739C635.252 187.688 634.555 184.062 634.555 179.86C634.555 175.659 635.235 172.102 636.612 169.138C637.989 166.175 639.959 163.891 642.539 162.305C645.119 160.718 648.223 159.934 651.849 159.934C654.725 159.934 657.288 160.509 659.502 161.677C661.734 162.845 663.529 164.431 664.889 166.419C666.249 168.406 667.068 170.62 667.312 173.078H660.339C660.06 171.631 659.572 170.341 658.84 169.191C658.107 168.04 657.149 167.151 655.946 166.471C654.743 165.809 653.313 165.46 651.657 165.46C649.582 165.46 647.804 165.948 646.34 166.942C644.875 167.936 643.777 169.487 642.993 171.631C642.225 173.776 641.842 176.53 641.842 179.947C641.842 185.108 642.696 188.873 644.387 191.227C646.096 193.58 648.501 194.748 651.64 194.748C653.313 194.748 654.743 194.382 655.928 193.65C657.131 192.918 658.09 191.941 658.822 190.721C659.554 189.501 660.06 188.158 660.321 186.711H667.295C667.086 188.49 666.632 190.181 665.952 191.819C665.273 193.458 664.314 194.905 663.093 196.178C661.873 197.45 660.321 198.462 658.456 199.194C656.608 199.926 654.394 200.292 651.814 200.292H651.849Z" fill="#2563EB"/>
<path d="M733.062 199.756V160.496H739.652V176.709H758.655V160.496H765.262V199.756H758.655V182.323H739.652V199.756H733.062Z" fill="#2563EB"/>
<path d="M833.016 199.756V160.496H839.483L858.713 188.547V160.496H865.32V199.756H859.375L839.64 170.939V199.756H833.05H833.016Z" fill="#2563EB"/>
<path d="M948.666 200.294C945.04 200.294 941.919 199.492 939.287 197.906C936.654 196.319 934.615 194.018 933.185 191.002C931.738 188.003 931.023 184.395 931.023 180.193C931.023 175.992 931.756 172.331 933.203 169.297C934.65 166.264 936.707 163.963 939.357 162.341C942.007 160.737 945.127 159.918 948.684 159.918C952.24 159.918 955.343 160.72 957.958 162.341C960.573 163.945 962.596 166.264 964.025 169.297C965.455 172.313 966.169 175.957 966.169 180.193C966.169 184.43 965.472 187.986 964.06 190.985C962.648 193.983 960.626 196.284 958.011 197.888C955.378 199.492 952.275 200.294 948.701 200.294H948.666ZM948.666 194.75C950.81 194.75 952.641 194.245 954.175 193.251C955.709 192.24 956.895 190.688 957.714 188.544C958.534 186.417 958.952 183.662 958.952 180.28C958.952 176.898 958.534 174.022 957.697 171.843C956.86 169.663 955.674 168.059 954.14 167.013C952.606 165.985 950.776 165.462 948.649 165.462C946.522 165.462 944.674 165.985 943.122 167.031C941.571 168.077 940.368 169.681 939.531 171.86C938.677 174.039 938.258 176.846 938.258 180.263C938.258 183.68 938.677 186.399 939.531 188.526C940.385 190.653 941.588 192.222 943.122 193.233C944.674 194.245 946.504 194.733 948.649 194.733L948.666 194.75Z" fill="#2563EB"/>
<path d="M1031.88 199.756L1031.92 160.496H1038.59V194.056H1056.32V199.756H1031.88Z" fill="#2563EB"/>
<path d="M1136.03 200.294C1132.4 200.294 1129.28 199.492 1126.65 197.906C1124.01 196.319 1121.97 194.018 1120.54 191.002C1119.1 188.003 1118.38 184.395 1118.38 180.193C1118.38 175.992 1119.12 172.331 1120.56 169.297C1122.01 166.264 1124.07 163.963 1126.72 162.341C1129.37 160.737 1132.49 159.918 1136.04 159.918C1139.6 159.918 1142.7 160.72 1145.32 162.341C1147.93 163.945 1149.95 166.264 1151.38 169.297C1152.81 172.313 1153.53 175.957 1153.53 180.193C1153.53 184.43 1152.83 187.986 1151.42 190.985C1150.01 193.983 1147.98 196.284 1145.37 197.888C1142.74 199.492 1139.63 200.294 1136.06 200.294H1136.03ZM1136.03 194.75C1138.17 194.75 1140 194.245 1141.53 193.251C1143.07 192.24 1144.25 190.688 1145.07 188.544C1145.89 186.417 1146.31 183.662 1146.31 180.28C1146.31 176.898 1145.89 174.022 1145.06 171.843C1144.22 169.663 1143.03 168.059 1141.5 167.013C1139.97 165.985 1138.13 165.462 1136.01 165.462C1133.88 165.462 1132.03 165.985 1130.48 167.031C1128.93 168.077 1127.73 169.681 1126.89 171.86C1126.04 174.039 1125.62 176.846 1125.62 180.263C1125.62 183.68 1126.04 186.399 1126.89 188.526C1127.74 190.653 1128.95 192.222 1130.48 193.233C1132.03 194.245 1133.86 194.733 1136.01 194.733L1136.03 194.75Z" fill="#2563EB"/>
<path d="M1234.19 200.298C1230.69 200.298 1227.64 199.496 1225.04 197.875C1222.44 196.254 1220.46 193.952 1219.06 190.971C1217.67 187.973 1216.97 184.399 1216.97 180.232C1216.97 176.066 1217.7 172.405 1219.15 169.371C1220.59 166.32 1222.63 164.002 1225.27 162.38C1227.9 160.759 1230.99 159.957 1234.54 159.957C1236.72 159.957 1238.73 160.323 1240.56 161.038C1242.39 161.77 1244.01 162.746 1245.39 163.967C1246.76 165.187 1247.86 166.599 1248.66 168.168C1249.46 169.737 1249.9 171.376 1249.99 173.084H1243.01C1242.75 171.742 1242.25 170.504 1241.48 169.371C1240.71 168.238 1239.72 167.331 1238.52 166.634C1237.31 165.954 1235.94 165.605 1234.4 165.605C1232.43 165.605 1230.67 166.111 1229.12 167.105C1227.57 168.098 1226.37 169.667 1225.48 171.794C1224.6 173.921 1224.15 176.676 1224.15 180.058C1224.15 182.743 1224.43 184.992 1224.99 186.839C1225.55 188.67 1226.3 190.152 1227.27 191.268C1228.23 192.383 1229.36 193.185 1230.62 193.691C1231.87 194.196 1233.23 194.44 1234.65 194.44C1236.06 194.44 1237.23 194.214 1238.29 193.743C1239.34 193.272 1240.23 192.662 1240.96 191.895C1241.69 191.128 1242.26 190.309 1242.67 189.437C1243.07 188.565 1243.31 187.711 1243.38 186.874L1243.62 183.998H1234.86V179.326L1250.53 179.378V199.775H1245.86V194.266C1245.19 195.26 1244.34 196.219 1243.31 197.143C1242.28 198.067 1241.04 198.834 1239.56 199.426C1238.08 200.019 1236.29 200.316 1234.18 200.316L1234.19 200.298Z" fill="#2563EB"/>
<path d="M1317.77 199.756V160.496H1324.36V199.756H1317.77Z" fill="#2563EB"/>
<path d="M1392.09 199.756V160.496H1418.05L1418.01 166.179H1398.73V177.18H1415.76V182.776H1398.68V194.021L1418.41 194.056V199.791H1392.07L1392.09 199.756Z" fill="#2563EB"/>
<path d="M1498.85 200.295C1496.9 200.295 1495.01 200.051 1493.23 199.58C1491.44 199.109 1489.8 198.395 1488.34 197.436C1486.85 196.494 1485.65 195.309 1484.67 193.879C1483.72 192.467 1483.12 190.794 1482.91 188.893H1489.77C1490.06 190.218 1490.64 191.334 1491.49 192.241C1492.35 193.147 1493.44 193.827 1494.77 194.298C1496.09 194.768 1497.56 194.995 1499.2 194.995C1500.64 194.995 1501.99 194.786 1503.24 194.35C1504.5 193.914 1505.51 193.269 1506.29 192.415C1507.08 191.561 1507.46 190.497 1507.46 189.225C1507.46 187.795 1506.96 186.679 1505.96 185.877C1504.95 185.075 1503.52 184.43 1501.66 183.96L1493.97 182.147C1491.98 181.693 1490.24 181.031 1488.77 180.159C1487.29 179.287 1486.16 178.137 1485.34 176.725C1484.52 175.313 1484.12 173.569 1484.12 171.495C1484.12 169.141 1484.76 167.101 1486.05 165.393C1487.34 163.685 1489.1 162.342 1491.33 161.418C1493.57 160.477 1496.08 160.023 1498.85 160.023C1502.04 160.023 1504.72 160.546 1506.92 161.61C1509.12 162.673 1510.77 164.085 1511.92 165.864C1513.06 167.642 1513.65 169.577 1513.67 171.704H1506.99C1506.85 170.135 1506.38 168.88 1505.61 167.973C1504.83 167.067 1503.85 166.387 1502.65 165.968C1501.45 165.55 1500.14 165.341 1498.69 165.341C1496.11 165.341 1494.21 165.899 1492.96 166.997C1491.7 168.095 1491.07 169.403 1491.07 170.884C1491.07 172.279 1491.54 173.378 1492.45 174.197C1493.37 175.016 1494.79 175.644 1496.69 176.097L1503.99 177.806C1506.43 178.311 1508.4 179.096 1509.88 180.142C1511.37 181.188 1512.45 182.443 1513.13 183.872C1513.81 185.302 1514.14 186.906 1514.14 188.632C1514.14 190.916 1513.49 192.938 1512.2 194.681C1510.91 196.442 1509.12 197.819 1506.83 198.813C1504.55 199.807 1501.9 200.312 1498.88 200.312L1498.85 200.295Z" fill="#2563EB"/>
<path d="M606.406 279.431V256.75H609.771V279.431H606.406Z" fill="#E6ECF3"/>
<path d="M629.549 279.431V256.75H632.791L644.332 273.661V256.75H647.714V279.431H644.698L632.896 262.154V279.431H629.531H629.549Z" fill="#E6ECF3"/>
<path d="M667.502 279.431V256.75H670.744L682.285 273.661V256.75H685.668V279.431H682.652L670.849 262.154V279.431H667.484H667.502Z" fill="#E6ECF3"/>
<path d="M714.266 279.74C712.209 279.74 710.431 279.287 708.932 278.363C707.432 277.439 706.282 276.131 705.462 274.388C704.643 272.645 704.242 270.57 704.242 268.112C704.242 265.654 704.661 263.544 705.48 261.801C706.299 260.058 707.467 258.733 708.967 257.809C710.466 256.885 712.244 256.414 714.284 256.414C716.324 256.414 718.067 256.885 719.566 257.809C721.048 258.733 722.199 260.075 723.018 261.801C723.837 263.527 724.238 265.654 724.238 268.112C724.238 270.57 723.837 272.645 723.035 274.371C722.234 276.096 721.083 277.421 719.584 278.345C718.102 279.269 716.324 279.723 714.284 279.723L714.266 279.74ZM714.266 276.881C715.591 276.881 716.707 276.585 717.648 275.975C718.59 275.364 719.305 274.423 719.793 273.133C720.281 271.843 720.525 270.204 720.525 268.199C720.525 266.194 720.281 264.451 719.775 263.143C719.27 261.836 718.555 260.877 717.631 260.249C716.69 259.622 715.574 259.308 714.266 259.308C712.959 259.308 711.826 259.622 710.884 260.249C709.943 260.877 709.211 261.853 708.688 263.161C708.165 264.468 707.921 266.142 707.921 268.199C707.921 270.256 708.182 271.86 708.688 273.15C709.193 274.423 709.926 275.382 710.884 275.975C711.826 276.585 712.959 276.881 714.266 276.881Z" fill="#E6ECF3"/>
<path d="M748.004 279.431L739.984 256.75H743.262L749.974 275.596L756.668 256.75H759.963L751.944 279.431H747.986H748.004Z" fill="#E6ECF3"/>
<path d="M772.352 279.431L780.545 256.75H784.241L792.418 279.431H789.035L786.909 273.486H777.913L775.769 279.431H772.369H772.352ZM778.732 270.453H786.019L782.376 260.028L778.732 270.453Z" fill="#E6ECF3"/>
<path d="M812.761 279.431V259.801H805.578V256.75H823.012V259.801H816.16V279.431H812.778H812.761Z" fill="#E6ECF3"/>
<path d="M840.633 279.431V256.75H855.294V259.661H844.015V266.548H854.074V269.424H843.997V276.467H855.556V279.431H840.633Z" fill="#E6ECF3"/>
<path d="M872.438 279.431V275.387H876.308V279.431H872.438Z" fill="#E6ECF3"/>
<path d="M916.484 279.431V256.75H924.033C926.84 256.75 928.967 257.256 930.396 258.267C931.826 259.278 932.541 260.742 932.541 262.66C932.541 263.845 932.244 264.857 931.617 265.711C931.006 266.565 929.943 267.28 928.409 267.855C929.315 268.047 930.065 268.343 930.675 268.709C931.285 269.075 931.756 269.511 932.105 269.982C932.453 270.453 932.697 270.993 932.854 271.551C933.011 272.109 933.081 272.702 933.081 273.312C933.081 275.369 932.349 276.903 930.902 277.914C929.455 278.925 927.241 279.431 924.295 279.431H916.484ZM919.849 266.565H924.643C925.201 266.565 925.759 266.513 926.299 266.391C926.84 266.269 927.345 266.077 927.781 265.815C928.217 265.554 928.583 265.188 928.862 264.735C929.141 264.281 929.263 263.741 929.263 263.078C929.263 261.841 928.792 260.934 927.868 260.324C926.944 259.731 925.724 259.435 924.242 259.435H919.832V266.548L919.849 266.565ZM919.849 276.711H924.312C926.073 276.711 927.398 276.415 928.304 275.805C929.211 275.212 929.664 274.306 929.664 273.103C929.664 272.231 929.437 271.516 928.984 270.976C928.531 270.418 927.921 270.017 927.171 269.755C926.404 269.494 925.55 269.354 924.608 269.354H919.814V276.711H919.849Z" fill="#E6ECF3"/>
<path d="M960.195 279.745C958.173 279.745 956.517 279.414 955.279 278.734C954.024 278.071 953.117 277.095 952.542 275.805C951.967 274.515 951.688 272.946 951.688 271.098V256.75H955.157V271.534C955.157 273.329 955.593 274.672 956.482 275.543C957.371 276.415 958.609 276.851 960.195 276.851C961.259 276.851 962.165 276.659 962.932 276.276C963.699 275.892 964.292 275.317 964.693 274.515C965.094 273.73 965.303 272.737 965.303 271.534V256.75H968.703V271.377C968.703 273.138 968.406 274.654 967.831 275.909C967.256 277.165 966.332 278.106 965.077 278.769C963.821 279.431 962.2 279.762 960.195 279.762V279.745Z" fill="#E6ECF3"/>
<path d="M987.93 279.431V256.75H991.294V279.431H987.93Z" fill="#E6ECF3"/>
<path d="M1011.09 279.431V256.75H1014.51V276.485H1024.99V279.431H1011.09Z" fill="#E6ECF3"/>
<path d="M1043.27 279.431V256.75C1043.27 256.75 1043.6 256.75 1044.02 256.75C1044.43 256.75 1044.92 256.75 1045.51 256.75C1046.11 256.75 1046.7 256.75 1047.31 256.75C1047.92 256.75 1048.46 256.75 1048.95 256.767C1051.72 256.802 1053.97 257.273 1055.71 258.145C1057.46 259.016 1058.73 260.289 1059.53 261.928C1060.33 263.567 1060.75 265.589 1060.75 267.942C1060.75 270.296 1060.32 272.492 1059.44 274.201C1058.57 275.909 1057.25 277.2 1055.47 278.089C1053.69 278.978 1051.42 279.414 1048.7 279.414H1043.28L1043.27 279.431ZM1046.68 276.607H1048.72C1050.43 276.607 1051.93 276.328 1053.2 275.77C1054.48 275.212 1055.45 274.306 1056.17 273.033C1056.86 271.778 1057.21 270.087 1057.21 267.977C1057.21 265.868 1056.88 264.264 1056.2 263.026C1055.54 261.788 1054.58 260.917 1053.32 260.376C1052.07 259.836 1050.57 259.574 1048.81 259.574H1046.68V276.607Z" fill="#E6ECF3"/>
<path d="M1077.58 279.431V275.387H1081.45V279.431H1077.58Z" fill="#E6ECF3"/>
<path d="M1121.62 279.431V256.75H1136.28V259.661H1125V266.548H1135.06V269.424H1124.98V276.467H1136.54V279.431H1121.62Z" fill="#E6ECF3"/>
<path d="M1155.45 279.431V256.75H1158.86V276.485H1169.34V279.431H1155.45Z" fill="#E6ECF3"/>
<path d="M1187.62 279.431V256.75H1202.28V259.661H1191V266.548H1201.06V269.424H1190.98V276.467H1202.54V279.431H1187.62Z" fill="#E6ECF3"/>
<path d="M1227.26 279.431L1219.24 256.75H1222.52L1229.23 275.596L1235.93 256.75H1239.22L1231.2 279.431H1227.24H1227.26Z" fill="#E6ECF3"/>
<path d="M1251.6 279.431L1259.8 256.75H1263.49L1271.67 279.431H1268.29L1266.16 273.486H1257.16L1255.02 279.431H1251.62H1251.6ZM1258 270.453H1265.29L1261.64 260.028L1258 270.453Z" fill="#E6ECF3"/>
<path d="M1292.02 279.431V259.801H1284.84V256.75H1302.27V259.801H1295.42V279.431H1292.04H1292.02Z" fill="#E6ECF3"/>
<path d="M1319.89 279.431V256.75H1334.55V259.661H1323.27V266.548H1333.33V269.424H1323.26V276.467H1334.81V279.431H1319.89Z" fill="#E6ECF3"/>
<path d="M1351.69 279.431V275.387H1355.56V279.431H1351.69Z" fill="#E6ECF3"/>
<path d="M588.979 267.223H448.727V268.966H588.979V267.223Z" fill="#2563EB"/>
<path d="M1513.24 267.223H1372.99V268.966H1513.24V267.223Z" fill="#2563EB"/>
<defs>
<linearGradient id="paint0_linear_12_447" x1="-0.987789" y1="1.32236" x2="133.606" y2="219.528" gradientUnits="userSpaceOnUse">
<stop offset="0.104046" stop-color="#2563EB"/>
<stop offset="1" stop-color="#60A5FA"/>
</linearGradient>
<linearGradient id="paint1_linear_12_447" x1="42.9888" y1="81.5645" x2="177.583" y2="299.77" gradientUnits="userSpaceOnUse">
<stop offset="0.100755" stop-color="#60A5FA"/>
<stop offset="1" stop-color="#2563EB"/>
</linearGradient>
<linearGradient id="paint2_linear_12_447" x1="818.207" y1="0.715716" x2="886.237" y2="127.147" gradientUnits="userSpaceOnUse">
<stop offset="0.100755" stop-color="#60A5FA"/>
<stop offset="1" stop-color="#2563EB"/>
</linearGradient>
</defs>
</svg>
