<svg width="239" height="280" viewBox="0 0 239 280" fill="none" xmlns="http://www.w3.org/2000/svg">
<path d="M194.663 159.116H163.387L20.9202 30.8399V178.816L0 199.736V12.0116L0.139445 12.1337C0.0522772 11.5932 0 11.0354 0 10.4601C0 4.68962 4.67218 0 10.4601 0H13.9294C16.5095 0 19.0025 0.958805 20.9202 2.68472L171.005 137.812L194.663 159.116Z" fill="#000614"/>
<path d="M194.663 159.116H163.387L20.9202 30.8399V178.816L0 199.736V12.0116L0.139445 12.1337C0.0522772 11.5932 0 11.0354 0 10.4601C0 4.68962 4.67218 0 10.4601 0H13.9294C16.5095 0 19.0025 0.958805 20.9202 2.68472L171.005 137.812L194.663 159.116Z" fill="url(#paint0_linear_12_448)"/>
<path d="M43.9766 120.862H75.2523L217.719 249.138V101.162L238.639 80.2422V267.966L238.5 267.844C238.587 268.385 238.639 268.943 238.639 269.518C238.639 275.288 233.967 279.978 228.179 279.978H224.71C222.13 279.978 219.637 279.019 217.719 277.293L67.6339 142.166L43.9766 120.862Z" fill="#000614"/>
<path d="M43.9766 120.862H75.2523L217.719 249.138V101.162L238.639 80.2422V267.966L238.5 267.844C238.587 268.385 238.639 268.943 238.639 269.518C238.639 275.288 233.967 279.978 228.179 279.978H224.71C222.13 279.978 219.637 279.019 217.719 277.293L67.6339 142.166L43.9766 120.862Z" fill="url(#paint1_linear_12_448)"/>
<defs>
<linearGradient id="paint0_linear_12_448" x1="-0.987789" y1="1.32236" x2="133.606" y2="219.528" gradientUnits="userSpaceOnUse">
<stop offset="0.104046" stop-color="#2563EB"/>
<stop offset="1" stop-color="#60A5FA"/>
</linearGradient>
<linearGradient id="paint1_linear_12_448" x1="42.9888" y1="81.5645" x2="177.583" y2="299.77" gradientUnits="userSpaceOnUse">
<stop offset="0.100755" stop-color="#60A5FA"/>
<stop offset="1" stop-color="#2563EB"/>
</linearGradient>
</defs>
</svg>
